<?xml version="1.0" encoding="UTF-8" standalone="no"?>
<svg
   xmlns:dc="http://purl.org/dc/elements/1.1/"
   xmlns:cc="http://creativecommons.org/ns#"
   xmlns:rdf="http://www.w3.org/1999/02/22-rdf-syntax-ns#"
   xmlns:svg="http://www.w3.org/2000/svg"
   xmlns="http://www.w3.org/2000/svg"
   xmlns:sodipodi="http://sodipodi.sourceforge.net/DTD/sodipodi-0.dtd"
   xmlns:inkscape="http://www.inkscape.org/namespaces/inkscape"
   width="210mm"
   height="297mm"
   viewBox="0 0 210 297"
   version="1.1"
   id="svg1204"
   inkscape:version="1.0.1 (3bc2e813f5, 2020-09-07)"
   sodipodi:docname="baseCalc - Copie.svg">
  <defs
     id="defs1198">
    <inkscape:path-effect
       effect="powerstroke"
       id="path-effect981"
       is_visible="true"
       lpeversion="1"
       offset_points="2.0357069,7.5169552"
       sort_points="true"
       interpolator_type="CentripetalCatmullRom"
       interpolator_beta="0.75"
       start_linecap_type="round"
       linejoin_type="spiro"
       miter_limit="4"
       scale_width="1"
       end_linecap_type="round" />
    <inkscape:path-effect
       effect="simplify"
       id="path-effect979"
       is_visible="true"
       lpeversion="1"
       steps="1"
       threshold="0.0035279903"
       smooth_angles="0"
       helper_size="0"
       simplify_individual_paths="false"
       simplify_just_coalesce="false"
       step="1" />
    <inkscape:path-effect
       effect="powerstroke"
       id="path-effect974"
       is_visible="true"
       lpeversion="1"
       offset_points="1.3350174,7.5169552"
       sort_points="true"
       interpolator_type="CentripetalCatmullRom"
       interpolator_beta="0.75"
       start_linecap_type="round"
       linejoin_type="spiro"
       miter_limit="4"
       scale_width="1"
       end_linecap_type="round" />
    <inkscape:path-effect
       effect="simplify"
       id="path-effect972"
       is_visible="true"
       lpeversion="1"
       steps="1"
       threshold="0.0035279903"
       smooth_angles="0"
       helper_size="0"
       simplify_individual_paths="false"
       simplify_just_coalesce="false"
       step="1" />
    <inkscape:path-effect
       effect="powerstroke"
       id="path-effect967"
       is_visible="true"
       lpeversion="1"
       offset_points="1.256102,7.5169552"
       sort_points="true"
       interpolator_type="CentripetalCatmullRom"
       interpolator_beta="0.75"
       start_linecap_type="round"
       linejoin_type="spiro"
       miter_limit="4"
       scale_width="1"
       end_linecap_type="round" />
    <inkscape:path-effect
       effect="simplify"
       id="path-effect965"
       is_visible="true"
       lpeversion="1"
       steps="1"
       threshold="0.0035279903"
       smooth_angles="0"
       helper_size="0"
       simplify_individual_paths="false"
       simplify_just_coalesce="false"
       step="1" />
    <inkscape:path-effect
       effect="powerstroke"
       id="path-effect960"
       is_visible="true"
       lpeversion="1"
       offset_points="1.3349058,7.5169552"
       sort_points="true"
       interpolator_type="CentripetalCatmullRom"
       interpolator_beta="0.75"
       start_linecap_type="round"
       linejoin_type="spiro"
       miter_limit="4"
       scale_width="1"
       end_linecap_type="round" />
    <inkscape:path-effect
       effect="simplify"
       id="path-effect958"
       is_visible="true"
       lpeversion="1"
       steps="1"
       threshold="0.0035279903"
       smooth_angles="0"
       helper_size="0"
       simplify_individual_paths="false"
       simplify_just_coalesce="false"
       step="1" />
    <inkscape:path-effect
       effect="powerstroke"
       id="path-effect953"
       is_visible="true"
       lpeversion="1"
       offset_points="1.2664442,7.5169552"
       sort_points="true"
       interpolator_type="CentripetalCatmullRom"
       interpolator_beta="0.75"
       start_linecap_type="round"
       linejoin_type="spiro"
       miter_limit="4"
       scale_width="1"
       end_linecap_type="round" />
    <inkscape:path-effect
       effect="simplify"
       id="path-effect951"
       is_visible="true"
       lpeversion="1"
       steps="1"
       threshold="0.0035279903"
       smooth_angles="0"
       helper_size="0"
       simplify_individual_paths="false"
       simplify_just_coalesce="false"
       step="1" />
    <inkscape:path-effect
       effect="powerstroke"
       id="path-effect946"
       is_visible="true"
       lpeversion="1"
       offset_points="0.75794638,7.5169552"
       sort_points="true"
       interpolator_type="CentripetalCatmullRom"
       interpolator_beta="0.75"
       start_linecap_type="round"
       linejoin_type="spiro"
       miter_limit="4"
       scale_width="1"
       end_linecap_type="round" />
    <inkscape:path-effect
       effect="simplify"
       id="path-effect944"
       is_visible="true"
       lpeversion="1"
       steps="1"
       threshold="0.0035279903"
       smooth_angles="0"
       helper_size="0"
       simplify_individual_paths="false"
       simplify_just_coalesce="false"
       step="1" />
    <inkscape:path-effect
       effect="powerstroke"
       id="path-effect939"
       is_visible="true"
       lpeversion="1"
       offset_points="1.663143,7.5169552"
       sort_points="true"
       interpolator_type="CentripetalCatmullRom"
       interpolator_beta="0.75"
       start_linecap_type="round"
       linejoin_type="spiro"
       miter_limit="4"
       scale_width="1"
       end_linecap_type="round" />
    <inkscape:path-effect
       effect="simplify"
       id="path-effect937"
       is_visible="true"
       lpeversion="1"
       steps="1"
       threshold="0.0035279903"
       smooth_angles="0"
       helper_size="0"
       simplify_individual_paths="false"
       simplify_just_coalesce="false"
       step="1" />
    <inkscape:path-effect
       effect="powerstroke"
       id="path-effect932"
       is_visible="true"
       lpeversion="1"
       offset_points="1.2649979,7.5169552"
       sort_points="true"
       interpolator_type="CentripetalCatmullRom"
       interpolator_beta="0.75"
       start_linecap_type="round"
       linejoin_type="spiro"
       miter_limit="4"
       scale_width="1"
       end_linecap_type="round" />
    <inkscape:path-effect
       effect="simplify"
       id="path-effect930"
       is_visible="true"
       lpeversion="1"
       steps="1"
       threshold="0.0035279903"
       smooth_angles="0"
       helper_size="0"
       simplify_individual_paths="false"
       simplify_just_coalesce="false"
       step="1" />
    <inkscape:path-effect
       effect="powerstroke"
       id="path-effect925"
       is_visible="true"
       lpeversion="1"
       offset_points="1.9746652,7.5169552"
       sort_points="true"
       interpolator_type="CentripetalCatmullRom"
       interpolator_beta="0.75"
       start_linecap_type="round"
       linejoin_type="spiro"
       miter_limit="4"
       scale_width="1"
       end_linecap_type="round" />
    <inkscape:path-effect
       effect="simplify"
       id="path-effect923"
       is_visible="true"
       lpeversion="1"
       steps="1"
       threshold="0.0035279903"
       smooth_angles="0"
       helper_size="0"
       simplify_individual_paths="false"
       simplify_just_coalesce="false"
       step="1" />
    <inkscape:path-effect
       effect="powerstroke"
       id="path-effect918"
       is_visible="true"
       lpeversion="1"
       offset_points="1.6246267,7.5169552"
       sort_points="true"
       interpolator_type="CentripetalCatmullRom"
       interpolator_beta="0.75"
       start_linecap_type="round"
       linejoin_type="spiro"
       miter_limit="4"
       scale_width="1"
       end_linecap_type="round" />
    <inkscape:path-effect
       effect="simplify"
       id="path-effect916"
       is_visible="true"
       lpeversion="1"
       steps="1"
       threshold="0.0035279903"
       smooth_angles="0"
       helper_size="0"
       simplify_individual_paths="false"
       simplify_just_coalesce="false"
       step="1" />
    <inkscape:path-effect
       effect="powerstroke"
       id="path-effect911"
       is_visible="true"
       lpeversion="1"
       offset_points="2.1824497,7.5169552"
       sort_points="true"
       interpolator_type="CentripetalCatmullRom"
       interpolator_beta="0.75"
       start_linecap_type="round"
       linejoin_type="spiro"
       miter_limit="4"
       scale_width="1"
       end_linecap_type="round" />
    <inkscape:path-effect
       effect="simplify"
       id="path-effect909"
       is_visible="true"
       lpeversion="1"
       steps="1"
       threshold="0.0035279903"
       smooth_angles="0"
       helper_size="0"
       simplify_individual_paths="false"
       simplify_just_coalesce="false"
       step="1" />
    <inkscape:path-effect
       effect="powerstroke"
       id="path-effect904"
       is_visible="true"
       lpeversion="1"
       offset_points="1.3547909,7.5169552"
       sort_points="true"
       interpolator_type="CentripetalCatmullRom"
       interpolator_beta="0.75"
       start_linecap_type="round"
       linejoin_type="spiro"
       miter_limit="4"
       scale_width="1"
       end_linecap_type="round" />
    <inkscape:path-effect
       effect="simplify"
       id="path-effect902"
       is_visible="true"
       lpeversion="1"
       steps="1"
       threshold="0.0035279903"
       smooth_angles="0"
       helper_size="0"
       simplify_individual_paths="false"
       simplify_just_coalesce="false"
       step="1" />
    <inkscape:path-effect
       effect="powerstroke"
       id="path-effect897"
       is_visible="true"
       lpeversion="1"
       offset_points="1.8708354,5.31529"
       sort_points="true"
       interpolator_type="CentripetalCatmullRom"
       interpolator_beta="0.75"
       start_linecap_type="round"
       linejoin_type="spiro"
       miter_limit="4"
       scale_width="1"
       end_linecap_type="round" />
    <inkscape:path-effect
       effect="simplify"
       id="path-effect895"
       is_visible="true"
       lpeversion="1"
       steps="1"
       threshold="0.0035279903"
       smooth_angles="0"
       helper_size="0"
       simplify_individual_paths="false"
       simplify_just_coalesce="false"
       step="1" />
    <inkscape:path-effect
       effect="powerstroke"
       id="path-effect890"
       is_visible="true"
       lpeversion="1"
       offset_points="1.4539176,5.31529"
       sort_points="true"
       interpolator_type="CentripetalCatmullRom"
       interpolator_beta="0.75"
       start_linecap_type="round"
       linejoin_type="spiro"
       miter_limit="4"
       scale_width="1"
       end_linecap_type="round" />
    <inkscape:path-effect
       effect="simplify"
       id="path-effect888"
       is_visible="true"
       lpeversion="1"
       steps="1"
       threshold="0.0035279903"
       smooth_angles="0"
       helper_size="0"
       simplify_individual_paths="false"
       simplify_just_coalesce="false"
       step="1" />
    <inkscape:path-effect
       effect="powerstroke"
       id="path-effect883"
       is_visible="true"
       lpeversion="1"
       offset_points="2.1191292,5.31529"
       sort_points="true"
       interpolator_type="CentripetalCatmullRom"
       interpolator_beta="0.75"
       start_linecap_type="round"
       linejoin_type="spiro"
       miter_limit="4"
       scale_width="1"
       end_linecap_type="round" />
    <inkscape:path-effect
       effect="simplify"
       id="path-effect881"
       is_visible="true"
       lpeversion="1"
       steps="1"
       threshold="0.0035279903"
       smooth_angles="0"
       helper_size="0"
       simplify_individual_paths="false"
       simplify_just_coalesce="false"
       step="1" />
  </defs>
  <sodipodi:namedview
     id="base"
     pagecolor="#ffffff"
     bordercolor="#666666"
     borderopacity="1.0"
     inkscape:pageopacity="0.0"
     inkscape:pageshadow="2"
     inkscape:zoom="0.5"
     inkscape:cx="633.38643"
     inkscape:cy="561.92306"
     inkscape:document-units="mm"
     inkscape:current-layer="layer1"
     inkscape:document-rotation="0"
     showgrid="false"
     inkscape:window-width="1920"
     inkscape:window-height="1017"
     inkscape:window-x="-8"
     inkscape:window-y="-8"
     inkscape:window-maximized="1"
     showguides="true" />
  <metadata
     id="metadata1201">
    <rdf:RDF>
      <cc:Work
         rdf:about="">
        <dc:format>image/svg+xml</dc:format>
        <dc:type
           rdf:resource="http://purl.org/dc/dcmitype/StillImage" />
        <dc:title></dc:title>
      </cc:Work>
    </rdf:RDF>
  </metadata>
  <g
     inkscape:label="Calque 1"
     inkscape:groupmode="layer"
     id="layer1">
    <rect
       style="fill:#c63f86;stroke-width:0.538696"
       id="rect985"
       width="104.73466"
       height="14.396605"
       x="-59.716736"
       y="131.97646"
       transform="matrix(0.80811011,-0.58903145,0.53193872,0.84678285,0,0)" />
    <rect
       style="fill:#c63f86;stroke-width:0.538697"
       id="rect985-7"
       width="104.73466"
       height="14.396605"
       x="136.79428"
       y="8.1282854"
       transform="matrix(0.81669868,0.57706436,-0.6319765,0.77498755,0,0)" />
    <rect
       style="fill:#c63f86;fill-opacity:1;stroke-width:0.264583"
       id="rect1540"
       width="22.45064"
       height="35.279575"
       x="144.1423"
       y="94.750641"
       transform="rotate(-0.54785788)" />
    <path
       id="path1550"
       style="fill:#c63f86;fill-opacity:1;stroke-width:0.229578"
       inkscape:transform-center-x="0.39530292"
       inkscape:transform-center-y="-7.6496828"
       d="m 107.96705,113.94653 -64.850302,46.4473 c -5.29e-4,0.008 -7.94e-4,0.016 -0.0026,0.0237 -2.64e-4,0.002 -7.93e-4,0.003 -0.0011,0.005 -2.14e-4,0.002 -2.43e-4,0.003 -5.29e-4,0.005 -5.29e-4,0.006 -0.0013,0.0121 -0.0021,0.0181 -0.0013,0.008 -0.0021,0.0163 -0.0026,0.0253 -7.93e-4,0.006 -0.0021,0.0111 -0.0031,0.017 -1.01e-4,0.001 -0.0016,0.006 -0.0016,0.006 -1.19e-4,0.002 5.29e-4,0.003 5.29e-4,0.005 -1.03e-4,0.003 -2.38e-4,0.005 -5.29e-4,0.008 -8.4e-5,10e-4 -2.43e-4,0.003 -5.29e-4,0.004 -7.94e-4,0.007 -0.0024,0.0127 -0.0021,0.0196 -1e-4,0.003 1.51e-4,0.005 0,0.008 -5.29e-4,0.009 1.9e-5,-0.006 -5.29e-4,0.007 -5.29e-4,0.0103 5.29e-4,-0.002 -5.29e-4,0.0124 -8.2e-5,0.001 -2.41e-4,0.002 -5.29e-4,0.003 -1.43e-4,0.002 -5.29e-4,0.003 -5.29e-4,0.004 -6.6e-5,0.001 0,0.002 0,0.003 v 0.0165 0.0181 0.015 0.0139 0.008 0.004 c 0,0.001 -6e-6,0.002 0,0.003 5e-6,0.002 1.8e-5,0.003 0,0.004 1.8e-5,0.001 2.6e-5,0.002 0,0.004 1.9e-4,0.001 -1.25e-4,0.002 0,0.003 1.56e-4,2.7e-4 2.38e-4,0.001 5.29e-4,0.002 2.65e-4,5.3e-4 2.17e-4,0.001 0.0011,0.003 2.65e-4,0.002 7.94e-4,0.004 0.0011,0.006 5.29e-4,0.002 0.0013,0.002 0.0021,0.009 -0.0011,-0.002 -0.0024,-0.003 -0.0036,-0.005 0.0021,0.004 0.005,0.008 0.0057,0.0124 -9.5e-5,-0.001 7.94e-4,-0.002 5.29e-4,-0.003 v 0.003 l -5.29e-4,-5.3e-4 c 2.65e-4,0.004 -0.0016,0.006 -0.0021,0.01 l 126.299787,0.83405 c 1.8e-4,-0.003 0.002,-0.004 0.002,-0.007 8e-5,-0.01 -1.5e-4,-0.0196 0,-0.0294 5.3e-4,-0.0319 0.006,-0.0573 0.0145,-0.0796 v -0.006 -0.008 c -0.004,-0.0155 -0.006,-0.0308 -0.005,-0.0465 -9e-5,-5.3e-4 -0.001,-0.002 -0.001,-0.002 -0.002,-0.002 -0.005,-0.003 -0.007,-0.005 -0.01,-0.009 -0.008,-0.0375 -0.005,-0.0631 2e-5,0.001 0,-0.002 0,-10e-4 3e-5,-2.7e-4 0,-8e-4 0,-0.001 -8e-5,-2.7e-4 1e-4,-8e-4 0,-0.001 -0.006,-0.0198 -0.008,-0.0394 -0.006,-0.0594 -1.9e-4,-0.002 -5.3e-4,-0.005 -5.3e-4,-0.0134 1.1e-4,-0.006 5.3e-4,-0.0116 5.3e-4,-0.0176 -1e-5,-0.006 0,-0.0121 0,-0.0181 v -0.0181 -0.0176 -0.0176 -0.0176 -0.006 c -5.3e-4,-0.002 -0.002,-0.003 -0.002,-0.005 -0.004,-0.0143 -0.006,-0.0291 -0.006,-0.0439 -6e-5,-0.0202 0.005,-0.031 0.01,-0.0439 -2.1e-4,-5.3e-4 -1.9e-4,-0.001 -5.3e-4,-0.002 -0.002,0.009 -0.005,0.0175 -0.007,0.0264 -0.001,0.004 -1.4e-4,0.0117 -5.2e-4,0.006 -5.3e-4,-0.0102 -5.3e-4,-0.007 -5.3e-4,-0.015 1.4e-4,-0.0121 5.3e-4,-0.0245 5.3e-4,-0.0367 0,-5.3e-4 0,-0.003 0,-0.003 -0.003,-0.01 -0.004,-0.0207 -0.005,-0.0305 -0.005,-0.0125 -0.008,-0.0246 -0.008,-0.045 -7.9e-4,-0.008 -8e-5,-0.0155 0.001,-0.0233 v -5.3e-4 c -5.3e-4,-0.0111 -2.5e-4,-0.0225 0,-0.0336 -3e-5,-0.006 1e-5,-0.0124 0,-0.0186 -0.003,-0.009 -0.005,-0.0181 -0.007,-0.0274 -0.003,-0.02 -5.3e-4,-0.0418 5.3e-4,-0.062 1e-5,-0.0203 -5.3e-4,-0.0407 -5.3e-4,-0.061 9e-5,-0.0167 3e-5,-0.0334 0,-0.0501 -2e-5,-0.014 0,-0.0279 0,-0.0418 -1e-5,-0.0184 0,-0.037 0,-0.0553 v -0.0966 -0.0186 z m -64.888026,46.42094 5.29e-4,5.3e-4 z m -0.14211,0.15555 -0.0047,0.003 c 2.64e-4,8e-4 7.94e-4,0.001 0.0011,0.002 2.65e-4,-0.002 0.0016,-0.004 0.0036,-0.005 z m 126.467726,0.45527 c -7.9e-4,0.002 -0.001,0.005 -0.002,0.007 -5.3e-4,0.002 -0.001,0.005 -0.002,0.007 4e-5,2e-4 -5e-5,0.001 0,0.002 0.002,-0.005 0.002,-0.009 0.004,-0.0155 z m 0.0114,0.28887 c -7.9e-4,0.003 -0.001,0.007 -0.002,0.0103 1.8e-4,5.3e-4 1.9e-4,0.001 5.3e-4,0.002 0.002,-0.007 0.002,-0.0159 0.002,-0.0119 z m 0.0139,0.0568 c 0.002,0.004 0.003,0.009 0.004,0.0129 0.006,0.006 0.0236,0.0256 0.0186,0.0186 -0.007,-0.011 -0.0144,-0.0215 -0.0227,-0.0315 z m 0.006,0.0388 c 0.003,0.004 0.006,0.006 0.008,0.01 7.9e-4,-7.9e-4 0.001,-0.002 0.002,-0.003 -0.003,-0.002 -0.007,-0.005 -0.0104,-0.007 z" />
    <path
       id="rect1575"
       style="fill:#c63f86;fill-opacity:1;stroke-width:0.400021"
       d="m 43.121916,160.39227 c -0.003,0.002 -0.0062,0.004 -0.0088,0.006 -0.0026,0.002 -0.0052,0.004 -0.0078,0.006 -0.0021,0.001 1.83e-4,-5.4e-4 -0.0021,5.1e-4 -5.29e-4,2.2e-4 -7.7e-4,7.7e-4 -0.001,0.001 -0.0024,0.003 -0.0027,0.004 -0.0036,0.006 -0.0036,0.009 -0.0088,0.0148 -0.01395,0.0181 v 54.27575 h 49.519459 v -43.65315 h 26.722915 v 43.65315 h 50.07085 v -53.48769 c -1.9e-4,-0.002 -5.2e-4,-0.005 -5.2e-4,-0.0134 1.1e-4,-0.006 5.2e-4,-0.0116 5.2e-4,-0.0176 -1e-5,-0.006 0,-0.0121 0,-0.0181 v -0.0181 -0.0176 -0.0176 -0.0176 -0.006 c -5.3e-4,-0.002 -0.002,-0.003 -0.002,-0.005 -0.004,-0.0143 -0.006,-0.0291 -0.006,-0.0439 -5e-5,-0.016 0.004,-0.0247 0.008,-0.0346 v -0.005 c -0.002,0.007 -0.004,0.0137 -0.006,0.0207 -10e-4,0.004 -1.9e-4,0.0114 -5.1e-4,0.006 -5.3e-4,-0.0102 -5.2e-4,-0.007 -5.2e-4,-0.015 1.4e-4,-0.0121 5.2e-4,-0.0245 5.2e-4,-0.0367 v -0.002 c -0.003,-0.01 -0.004,-0.0207 -0.005,-0.0305 -0.005,-0.0125 -0.008,-0.0246 -0.008,-0.045 -7.9e-4,-0.008 9e-5,-0.0154 0.001,-0.0233 v -5.1e-4 c -5.3e-4,-0.0111 -2.6e-4,-0.0225 0,-0.0336 -3e-5,-0.006 1e-5,-0.0124 0,-0.0186 -0.003,-0.009 -0.005,-0.0181 -0.007,-0.0274 -0.003,-0.02 -5.5e-4,-0.0418 5.1e-4,-0.062 10e-6,-0.0203 -5.1e-4,-0.0407 -5.1e-4,-0.061 9e-5,-0.0167 3e-5,-0.0334 0,-0.0501 -3e-5,-0.014 0,-0.0279 0,-0.0419 -1e-5,-0.0184 0,-0.037 0,-0.0553 v -0.0966 -0.0263 c 0,-0.004 1e-5,-0.008 0,-0.0124 z" />
  </g>
</svg>
