<?xml version="1.0" encoding="UTF-8" standalone="no"?>
<svg
   xmlns:dc="http://purl.org/dc/elements/1.1/"
   xmlns:cc="http://creativecommons.org/ns#"
   xmlns:rdf="http://www.w3.org/1999/02/22-rdf-syntax-ns#"
   xmlns:svg="http://www.w3.org/2000/svg"
   xmlns="http://www.w3.org/2000/svg"
   xmlns:sodipodi="http://sodipodi.sourceforge.net/DTD/sodipodi-0.dtd"
   xmlns:inkscape="http://www.inkscape.org/namespaces/inkscape"
   width="210mm"
   height="297mm"
   viewBox="0 0 210 297"
   version="1.1"
   id="svg1204"
   inkscape:version="1.0.1 (3bc2e813f5, 2020-09-07)"
   sodipodi:docname="squareRoot.svg">
  <defs
     id="defs1198">
    <inkscape:path-effect
       effect="powerstroke"
       id="path-effect981"
       is_visible="true"
       lpeversion="1"
       offset_points="2.0357069,7.5169552"
       sort_points="true"
       interpolator_type="CentripetalCatmullRom"
       interpolator_beta="0.75"
       start_linecap_type="round"
       linejoin_type="spiro"
       miter_limit="4"
       scale_width="1"
       end_linecap_type="round" />
    <inkscape:path-effect
       effect="simplify"
       id="path-effect979"
       is_visible="true"
       lpeversion="1"
       steps="1"
       threshold="0.0035279903"
       smooth_angles="0"
       helper_size="0"
       simplify_individual_paths="false"
       simplify_just_coalesce="false"
       step="1" />
    <inkscape:path-effect
       effect="powerstroke"
       id="path-effect974"
       is_visible="true"
       lpeversion="1"
       offset_points="1.3350174,7.5169552"
       sort_points="true"
       interpolator_type="CentripetalCatmullRom"
       interpolator_beta="0.75"
       start_linecap_type="round"
       linejoin_type="spiro"
       miter_limit="4"
       scale_width="1"
       end_linecap_type="round" />
    <inkscape:path-effect
       effect="simplify"
       id="path-effect972"
       is_visible="true"
       lpeversion="1"
       steps="1"
       threshold="0.0035279903"
       smooth_angles="0"
       helper_size="0"
       simplify_individual_paths="false"
       simplify_just_coalesce="false"
       step="1" />
    <inkscape:path-effect
       effect="powerstroke"
       id="path-effect967"
       is_visible="true"
       lpeversion="1"
       offset_points="1.256102,7.5169552"
       sort_points="true"
       interpolator_type="CentripetalCatmullRom"
       interpolator_beta="0.75"
       start_linecap_type="round"
       linejoin_type="spiro"
       miter_limit="4"
       scale_width="1"
       end_linecap_type="round" />
    <inkscape:path-effect
       effect="simplify"
       id="path-effect965"
       is_visible="true"
       lpeversion="1"
       steps="1"
       threshold="0.0035279903"
       smooth_angles="0"
       helper_size="0"
       simplify_individual_paths="false"
       simplify_just_coalesce="false"
       step="1" />
    <inkscape:path-effect
       effect="powerstroke"
       id="path-effect960"
       is_visible="true"
       lpeversion="1"
       offset_points="1.3349058,7.5169552"
       sort_points="true"
       interpolator_type="CentripetalCatmullRom"
       interpolator_beta="0.75"
       start_linecap_type="round"
       linejoin_type="spiro"
       miter_limit="4"
       scale_width="1"
       end_linecap_type="round" />
    <inkscape:path-effect
       effect="simplify"
       id="path-effect958"
       is_visible="true"
       lpeversion="1"
       steps="1"
       threshold="0.0035279903"
       smooth_angles="0"
       helper_size="0"
       simplify_individual_paths="false"
       simplify_just_coalesce="false"
       step="1" />
    <inkscape:path-effect
       effect="powerstroke"
       id="path-effect953"
       is_visible="true"
       lpeversion="1"
       offset_points="1.2664442,7.5169552"
       sort_points="true"
       interpolator_type="CentripetalCatmullRom"
       interpolator_beta="0.75"
       start_linecap_type="round"
       linejoin_type="spiro"
       miter_limit="4"
       scale_width="1"
       end_linecap_type="round" />
    <inkscape:path-effect
       effect="simplify"
       id="path-effect951"
       is_visible="true"
       lpeversion="1"
       steps="1"
       threshold="0.0035279903"
       smooth_angles="0"
       helper_size="0"
       simplify_individual_paths="false"
       simplify_just_coalesce="false"
       step="1" />
    <inkscape:path-effect
       effect="powerstroke"
       id="path-effect946"
       is_visible="true"
       lpeversion="1"
       offset_points="0.75794638,7.5169552"
       sort_points="true"
       interpolator_type="CentripetalCatmullRom"
       interpolator_beta="0.75"
       start_linecap_type="round"
       linejoin_type="spiro"
       miter_limit="4"
       scale_width="1"
       end_linecap_type="round" />
    <inkscape:path-effect
       effect="simplify"
       id="path-effect944"
       is_visible="true"
       lpeversion="1"
       steps="1"
       threshold="0.0035279903"
       smooth_angles="0"
       helper_size="0"
       simplify_individual_paths="false"
       simplify_just_coalesce="false"
       step="1" />
    <inkscape:path-effect
       effect="powerstroke"
       id="path-effect939"
       is_visible="true"
       lpeversion="1"
       offset_points="1.663143,7.5169552"
       sort_points="true"
       interpolator_type="CentripetalCatmullRom"
       interpolator_beta="0.75"
       start_linecap_type="round"
       linejoin_type="spiro"
       miter_limit="4"
       scale_width="1"
       end_linecap_type="round" />
    <inkscape:path-effect
       effect="simplify"
       id="path-effect937"
       is_visible="true"
       lpeversion="1"
       steps="1"
       threshold="0.0035279903"
       smooth_angles="0"
       helper_size="0"
       simplify_individual_paths="false"
       simplify_just_coalesce="false"
       step="1" />
    <inkscape:path-effect
       effect="powerstroke"
       id="path-effect932"
       is_visible="true"
       lpeversion="1"
       offset_points="1.2649979,7.5169552"
       sort_points="true"
       interpolator_type="CentripetalCatmullRom"
       interpolator_beta="0.75"
       start_linecap_type="round"
       linejoin_type="spiro"
       miter_limit="4"
       scale_width="1"
       end_linecap_type="round" />
    <inkscape:path-effect
       effect="simplify"
       id="path-effect930"
       is_visible="true"
       lpeversion="1"
       steps="1"
       threshold="0.0035279903"
       smooth_angles="0"
       helper_size="0"
       simplify_individual_paths="false"
       simplify_just_coalesce="false"
       step="1" />
    <inkscape:path-effect
       effect="powerstroke"
       id="path-effect925"
       is_visible="true"
       lpeversion="1"
       offset_points="1.9746652,7.5169552"
       sort_points="true"
       interpolator_type="CentripetalCatmullRom"
       interpolator_beta="0.75"
       start_linecap_type="round"
       linejoin_type="spiro"
       miter_limit="4"
       scale_width="1"
       end_linecap_type="round" />
    <inkscape:path-effect
       effect="simplify"
       id="path-effect923"
       is_visible="true"
       lpeversion="1"
       steps="1"
       threshold="0.0035279903"
       smooth_angles="0"
       helper_size="0"
       simplify_individual_paths="false"
       simplify_just_coalesce="false"
       step="1" />
    <inkscape:path-effect
       effect="powerstroke"
       id="path-effect918"
       is_visible="true"
       lpeversion="1"
       offset_points="1.6246267,7.5169552"
       sort_points="true"
       interpolator_type="CentripetalCatmullRom"
       interpolator_beta="0.75"
       start_linecap_type="round"
       linejoin_type="spiro"
       miter_limit="4"
       scale_width="1"
       end_linecap_type="round" />
    <inkscape:path-effect
       effect="simplify"
       id="path-effect916"
       is_visible="true"
       lpeversion="1"
       steps="1"
       threshold="0.0035279903"
       smooth_angles="0"
       helper_size="0"
       simplify_individual_paths="false"
       simplify_just_coalesce="false"
       step="1" />
    <inkscape:path-effect
       effect="powerstroke"
       id="path-effect911"
       is_visible="true"
       lpeversion="1"
       offset_points="2.1824497,7.5169552"
       sort_points="true"
       interpolator_type="CentripetalCatmullRom"
       interpolator_beta="0.75"
       start_linecap_type="round"
       linejoin_type="spiro"
       miter_limit="4"
       scale_width="1"
       end_linecap_type="round" />
    <inkscape:path-effect
       effect="simplify"
       id="path-effect909"
       is_visible="true"
       lpeversion="1"
       steps="1"
       threshold="0.0035279903"
       smooth_angles="0"
       helper_size="0"
       simplify_individual_paths="false"
       simplify_just_coalesce="false"
       step="1" />
    <inkscape:path-effect
       effect="powerstroke"
       id="path-effect904"
       is_visible="true"
       lpeversion="1"
       offset_points="1.3547909,7.5169552"
       sort_points="true"
       interpolator_type="CentripetalCatmullRom"
       interpolator_beta="0.75"
       start_linecap_type="round"
       linejoin_type="spiro"
       miter_limit="4"
       scale_width="1"
       end_linecap_type="round" />
    <inkscape:path-effect
       effect="simplify"
       id="path-effect902"
       is_visible="true"
       lpeversion="1"
       steps="1"
       threshold="0.0035279903"
       smooth_angles="0"
       helper_size="0"
       simplify_individual_paths="false"
       simplify_just_coalesce="false"
       step="1" />
    <inkscape:path-effect
       effect="powerstroke"
       id="path-effect897"
       is_visible="true"
       lpeversion="1"
       offset_points="1.8708354,5.31529"
       sort_points="true"
       interpolator_type="CentripetalCatmullRom"
       interpolator_beta="0.75"
       start_linecap_type="round"
       linejoin_type="spiro"
       miter_limit="4"
       scale_width="1"
       end_linecap_type="round" />
    <inkscape:path-effect
       effect="simplify"
       id="path-effect895"
       is_visible="true"
       lpeversion="1"
       steps="1"
       threshold="0.0035279903"
       smooth_angles="0"
       helper_size="0"
       simplify_individual_paths="false"
       simplify_just_coalesce="false"
       step="1" />
    <inkscape:path-effect
       effect="powerstroke"
       id="path-effect890"
       is_visible="true"
       lpeversion="1"
       offset_points="1.4539176,5.31529"
       sort_points="true"
       interpolator_type="CentripetalCatmullRom"
       interpolator_beta="0.75"
       start_linecap_type="round"
       linejoin_type="spiro"
       miter_limit="4"
       scale_width="1"
       end_linecap_type="round" />
    <inkscape:path-effect
       effect="simplify"
       id="path-effect888"
       is_visible="true"
       lpeversion="1"
       steps="1"
       threshold="0.0035279903"
       smooth_angles="0"
       helper_size="0"
       simplify_individual_paths="false"
       simplify_just_coalesce="false"
       step="1" />
    <inkscape:path-effect
       effect="powerstroke"
       id="path-effect883"
       is_visible="true"
       lpeversion="1"
       offset_points="2.1191292,5.31529"
       sort_points="true"
       interpolator_type="CentripetalCatmullRom"
       interpolator_beta="0.75"
       start_linecap_type="round"
       linejoin_type="spiro"
       miter_limit="4"
       scale_width="1"
       end_linecap_type="round" />
    <inkscape:path-effect
       effect="simplify"
       id="path-effect881"
       is_visible="true"
       lpeversion="1"
       steps="1"
       threshold="0.0035279903"
       smooth_angles="0"
       helper_size="0"
       simplify_individual_paths="false"
       simplify_just_coalesce="false"
       step="1" />
  </defs>
  <sodipodi:namedview
     id="base"
     pagecolor="#ffffff"
     bordercolor="#666666"
     borderopacity="1.0"
     inkscape:pageopacity="0.0"
     inkscape:pageshadow="2"
     inkscape:zoom="0.49497475"
     inkscape:cx="499.08057"
     inkscape:cy="616.36943"
     inkscape:document-units="mm"
     inkscape:current-layer="layer1"
     inkscape:document-rotation="0"
     showgrid="false"
     inkscape:window-width="1920"
     inkscape:window-height="1017"
     inkscape:window-x="-8"
     inkscape:window-y="-8"
     inkscape:window-maximized="1" />
  <metadata
     id="metadata1201">
    <rdf:RDF>
      <cc:Work
         rdf:about="">
        <dc:format>image/svg+xml</dc:format>
        <dc:type
           rdf:resource="http://purl.org/dc/dcmitype/StillImage" />
        <dc:title></dc:title>
      </cc:Work>
    </rdf:RDF>
  </metadata>
  <g
     inkscape:label="Calque 1"
     inkscape:groupmode="layer"
     id="layer1">
    <rect
       style="fill:#c63f86;stroke-width:0.399934"
       id="rect985"
       width="56.767742"
       height="14.639875"
       x="16.570709"
       y="122.28313" />
    <path
       id="rect985-6"
       style="fill:#c63f86;stroke-width:0.596665"
       d="m 73.338715,122.28319 -14.547316,9.33432 31.72396,104.01087 c 0.151103,-0.0198 0.312272,-0.032 0.486551,-0.032 h 0.212965 0.23017 0.327642 0.294059 0.254741 0.236725 0.227711 0.179383 0.267846 0.178565 0.214605 c 0.06728,0 0.134215,-1e-5 0.201501,0 0.07272,-1e-5 0.145161,-1e-5 0.217882,0 0.08894,3e-5 0.17809,-1e-5 0.267029,0 0.154253,1.2e-4 0.308535,8.8e-4 0.462796,0 0.0478,0 0.09556,8.8e-4 0.143341,0.002 l 10.855609,-6.96629 z" />
    <path
       id="rect985-6-7"
       style="fill:#c63f86;stroke-width:0.71391"
       d="m 138.03659,75.570628 -0.0819,0.0097 c 0.0263,0.0023 0.0524,0.0061 0.0787,0.0097 z m -12.34391,1.863734 c -0.006,0.002 -0.0131,0.003 -0.0196,0.004 -0.004,3.8e-4 -0.007,1.6e-4 -0.0115,7.6e-4 0.0422,0 0.0845,-2e-5 0.12696,0 0.0226,2e-5 0.0453,-3e-5 0.068,0 -9.3e-4,-7.6e-4 -0.003,-0.002 -0.005,-0.002 -0.0533,7.6e-4 -0.10645,7.6e-4 -0.15972,-0.002 z m -2.82592,0.0961 c -0.0114,2.2e-4 -0.0226,0.003 -0.0344,0.002 h -0.0753 c -0.0392,0.0281 -0.1059,0.0189 -0.15153,0.0149 -0.031,-0.002 -0.0482,-1e-5 -0.0787,0 -0.0143,0.004 -0.0298,-0.003 -0.0442,0 -0.0157,0.003 -0.0247,0.0108 -0.0401,0.0142 -0.0377,0.008 -0.0424,0.007 -0.0762,0.007 -0.0126,0.004 -0.0807,-0.0119 -0.0926,-0.006 -9.3e-4,7.6e-4 0.003,0.003 0.002,0.004 -9.2e-4,0.002 -0.004,0.003 -0.006,0.005 -0.0659,0.0235 -0.13491,0.007 -0.20313,0.007 -0.0171,0.005 -0.0359,-0.002 -0.0533,0.002 -0.008,-0.002 -0.006,0.008 -0.0114,0.01 -0.047,0.0135 -0.0395,0.0107 -0.0795,0.0112 -0.0444,-0.006 -0.0889,-0.004 -0.13352,-0.004 0.007,-3.8e-4 -0.006,-1.2e-4 -0.0107,0 -4.2e-4,0.002 -0.007,0.006 -0.0492,0.0194 -0.008,0.003 -0.018,0.001 -0.0271,0.002 -0.0384,-0.005 -0.0761,-0.005 -0.11468,-0.004 -0.0123,0.005 -0.0268,-0.003 -0.0393,0 -0.006,0.001 -0.007,0.008 -0.0131,0.01 -0.0345,0.0111 -0.0317,0.009 -0.0623,0.0105 -0.0414,0.0226 -0.0948,0.0174 -0.14089,0.0127 -0.0544,-0.001 -0.10865,-1e-5 -0.163,0 -0.009,-7e-5 -0.0181,2e-5 -0.0271,0 L 91.670542,235.59656 h 0.10157 0.294058 0.254741 0.236724 0.227713 0.179382 0.267847 0.178564 0.214606 c 0.06728,0 0.134215,0 0.201501,0 0.07272,0 0.14516,0 0.217881,0 0.08894,3e-5 0.178091,0 0.267029,0 0.154253,1.2e-4 0.308535,8.9e-4 0.462797,0 0.137113,0 0.274096,0.003 0.411191,0.004 0.153629,0.004 0.290854,-0.0146 0.429209,-0.0149 0.107625,-2.6e-4 0.218736,0.0197 0.336654,0.0604 0.06704,-2e-5 0.133641,-1.5e-4 0.200679,0 0.06955,1.1e-4 0.130184,-7.6e-4 0.207233,-7.6e-4 0.05741,8.8e-4 0.08367,0.002 0.126147,0.003 0.160736,-0.0165 0.314335,-0.0294 0.484905,0.0201 0.02248,0.006 0.04281,0.0182 0.06471,0.0261 h 0.282593 0.316176 0.333375 0.203136 0.225255 0.158908 0.158085 0.153176 0.18348 0.4931 0.654463 0.66348 0.36204 0.3514 0.14088 0.26704 0.33337 0.46852 0.32847 0.23508 0.18512 0.15891 0.1589 0.15973 0.14662 0.24491 0.25638 0.28915 0.29406 0.23999 0.24655 0.24574 0.31699 0.26703 0.36368 0.1589 0.16382 0.17365 c 0.0114,0.39445 0.006,0.22546 0.01,0.36947 l 0.008,-7.6e-4 c -0.003,-0.11656 -0.007,-0.27081 -0.008,-0.36873 -7e-5,-0.009 0.0173,0 0.0262,0 h 0.0295 0.35468 v -7.6e-4 c 0.11397,0 0.21621,0.01 0.32027,0.0186 L 137.65735,77.604202 c -9.3e-4,-1e-5 -0.002,1e-5 -0.004,0 -0.0938,-0.001 -0.13857,-0.002 -0.23672,-0.003 -0.0184,-1.2e-4 -0.0372,0.002 -0.0557,7.7e-4 -0.008,-2.9e-4 -0.0168,-0.004 -0.0254,-0.004 -0.0221,0.002 -0.0437,0.007 -0.0655,0.0112 l -0.10075,0.007 c -0.0607,-0.002 -0.0272,-2.2e-4 -0.0983,-0.002 -0.002,-8e-5 -0.004,-7.7e-4 -0.007,-7.7e-4 -0.0312,0.006 -0.0638,0.009 -0.095,0.0156 -0.0815,2e-5 -0.16335,5e-5 -0.24491,0 -0.068,0 -0.13599,3e-4 -0.20396,0 -0.11537,-0.001 -0.23032,-2.3e-4 -0.34566,0.002 -0.0746,-2.9e-4 -0.073,3e-4 -0.16055,-0.005 -0.0542,-0.003 0.018,-0.003 -0.0516,-0.006 -0.20479,-0.009 0.14605,0.0143 -0.16219,-0.008 -0.003,-7.6e-4 -0.0341,-0.007 -0.0344,-0.007 -0.014,-7.7e-4 -0.0285,0 -0.0426,0 h -0.16382 -0.32683 -0.25229 -0.20231 -0.15399 c -0.05,0 -0.0999,-1e-5 -0.1499,0 -0.0813,0 -0.16283,0 -0.24409,0 -0.10965,0 -0.21882,9e-5 -0.32846,0 -0.11253,-2.3e-4 -0.22495,-3.9e-4 -0.33748,7.6e-4 -0.0375,0 -0.0755,-7.6e-4 -0.11303,-0.002 -0.0102,-3.8e-4 -0.03,0.007 -0.0352,-0.004 -0.0682,0.0122 -0.0562,0.0117 -0.14334,0.0186 -0.0477,0.004 -0.0964,-0.003 -0.14416,0 h -0.22034 -0.21051 -0.19495 -0.19085 -0.14334 -0.14826 -0.14334 -0.14744 c -0.0466,0 -0.0935,-1e-5 -0.14007,0 h -0.16791 c -0.0502,0 -0.10049,0 -0.15072,0 -0.0758,-2e-5 -0.1519,-8e-5 -0.22772,0 -0.0587,0 -0.11659,-0.001 -0.17529,-7.7e-4 -0.0649,0.001 -0.13009,0.002 -0.19494,-0.002 0.0107,-0.003 0.043,-0.0132 0.032,-0.0112 -0.0176,0.003 -0.0347,0.0104 -0.0524,0.0134 -0.0536,0.009 -0.0983,0.0143 -0.15071,0.0127 -0.0541,0 -0.10887,0 -0.163,0 -0.0441,0 -0.0877,0 -0.13187,0 -0.0397,2e-5 -0.0799,7e-5 -0.11959,0 -0.0419,0 -0.0835,7.7e-4 -0.12533,0 -0.0443,-0.001 -0.0876,-3.8e-4 -0.13188,0.003 -0.0192,-3.8e-4 -0.13635,-0.006 -0.13761,-0.0127 -4.1e-4,-0.003 0.0132,-0.002 0.01,-0.002 -0.0209,-0.003 -0.0431,0.004 -0.0639,-7.6e-4 -0.0437,-0.001 -0.0873,0.003 -0.13105,0.004 -0.0771,-0.002 -0.0888,-0.007 -0.13352,-0.0156 -0.0146,-3.8e-4 -0.0323,-0.002 -0.0245,-7.7e-4 -0.0104,-3.8e-4 -0.0207,0.002 -0.0311,0.002 -0.0634,0.003 -0.12313,-3.9e-4 -0.1843,-0.0142 -0.009,10e-4 -0.0182,0.005 -0.0279,0.003 -0.0481,-7.6e-4 -0.0425,1.4e-4 -0.095,-0.005 -0.0125,-0.001 -0.0244,-0.005 -0.0369,-0.006 -0.10156,-0.007 -0.057,-0.002 -0.12286,-0.0127 0.007,-1.8e-4 0.0241,-0.002 0.0181,-0.002 -0.009,-3.8e-4 -0.0186,1.8e-4 -0.0279,7.7e-4 -4.2e-4,-1e-4 -9.3e-4,7e-5 -0.002,0 -0.005,2.2e-4 -0.008,7.6e-4 -0.0123,7.6e-4 -0.0722,0.002 -0.14427,0.002 -0.21624,-0.004 -0.008,-0.001 -0.0165,-0.001 -0.0246,-0.003 -0.005,-7.6e-4 -0.01,-0.003 -0.0147,-0.003 -0.02,-3.8e-4 -0.0407,0.002 -0.0606,7.6e-4 -0.0403,-0.002 -0.0725,-0.008 -0.10648,-0.0134 -8.4e-4,-4e-5 -0.002,3e-5 -0.003,0 -0.0825,0.0771 -0.22792,0.12616 -0.44396,0.0983 -0.0764,-0.01 -0.15337,-0.006 -0.23016,-0.0134 -0.072,-0.007 -0.032,-0.009 -0.0688,-0.006 -0.0525,0.004 -0.10356,-0.008 -0.1548,-0.0156 -0.002,-3e-4 0.003,7.7e-4 0.006,0.002 0.009,7.6e-4 0.0185,0.002 0.0279,0.003 0.008,10e-4 -0.0168,-0.001 -0.0254,-0.002 -8.4e-4,-10e-5 -9.3e-4,-3.6e-4 -0.003,-7.6e-4 -0.0192,-0.002 -0.0381,-0.004 -0.0574,-0.006 -0.0125,-0.002 -0.025,-0.005 -0.0377,-0.007 -0.002,-0.007 0.005,0.004 0.004,0.004 -0.0444,0.002 -0.089,0.002 -0.13351,0.003 -0.0851,-3.4e-4 -0.1704,-7.7e-4 -0.25557,-7.7e-4 -0.0804,2e-4 -0.16037,2e-5 -0.24081,0 -0.0662,0 -0.0585,0.002 -0.14416,-0.007 -0.0199,-0.002 -0.0398,-0.007 -0.0598,-0.009 -0.0153,-0.002 -0.0305,0.003 -0.0459,0.002 -0.0431,-0.004 -0.0863,-0.009 -0.12943,-0.0134 -0.0933,-0.0152 -0.0734,-0.0113 -0.17528,-0.032 -0.0245,-0.005 -0.0491,-0.009 -0.0737,-0.0142 -0.0423,-2e-4 -0.0846,0 -0.12695,0 -0.0815,3.8e-4 -0.16337,7e-5 -0.24492,0 -0.0881,-3e-5 -0.17645,0 -0.26457,0 -0.0738,0 -0.14734,0 -0.22116,0 h -0.14498 -0.1458 -0.19823 -0.25883 -0.20559 -0.22526 -0.20642 -0.16464 -0.1671 -0.14662 -0.16873 -0.14007 c -0.0195,0.005 -0.01,7.7e-4 -0.0123,0 h -0.13434 -0.11058 z M 107.48395,235.69393 c 0.002,-0.0728 -0.007,0.23214 -0.01,0.36425 h 0.002 c 0.003,-0.1123 0.007,-0.29107 0.008,-0.36425 z M 129.20499,77.582602 c -0.0205,-7.7e-4 -0.0404,0.003 -0.0606,0.007 0.003,-1e-5 0.006,0.001 0.0139,0.001 0.0207,-0.004 0.0627,-0.008 0.0467,-0.009 z m 0.12123,0.0156 c -0.006,-0.001 0.013,0.004 0.0196,0.004 0.008,7.6e-4 0.017,3.2e-4 0.0254,7.6e-4 -0.0159,-0.003 -0.007,7.7e-4 -0.045,-0.005 z M 97.142745,235.7371 c 0.124242,0.0544 0.246445,0.11452 0.375968,0.15717 0.09987,0.0329 -0.178754,-0.10973 -0.280135,-0.13856 -0.02927,-0.008 -0.06342,-0.0124 -0.09583,-0.0186 z m -0.682314,0.23091 c 0.07052,0.0595 0.139202,0.1205 0.21706,0.17058 0.05251,0.0337 -0.08073,-0.0909 -0.121226,-0.13631 -0.04256,-0.0161 -0.05621,-0.0195 -0.09583,-0.0342 z" />
    <path
       id="rect985-2"
       style="fill:#c63f86;stroke-width:0.470034"
       d="m 122.1208,77.558012 c 7.3e-4,10e-4 8e-4,0.002 7.3e-4,0.003 -8e-4,0.002 -0.003,0.003 -0.005,0.005 -0.0568,0.0235 -0.11637,0.007 -0.17521,0.007 -0.0147,0.005 -0.0309,-0.002 -0.046,10e-4 -0.007,-0.002 -0.005,0.008 -0.01,0.01 -0.0405,0.0135 -0.0341,0.0107 -0.0686,0.0112 -0.0383,-0.006 -0.0766,-0.005 -0.11515,-0.004 0.006,-3.8e-4 -0.005,-1.3e-4 -0.009,0 -3.5e-4,0.002 -0.006,0.006 -0.0423,0.0194 -0.007,0.003 -0.0155,10e-4 -0.0234,0.002 -0.0331,-0.005 -0.0656,-0.005 -0.0989,-0.004 -0.0106,0.005 -0.0231,-0.003 -0.0339,0 -0.005,0.002 -0.006,0.009 -0.0113,0.0104 -0.0297,0.0111 -0.0273,0.009 -0.0537,0.0104 -0.0357,0.0226 -0.0818,0.0174 -0.12151,0.0127 -0.0469,-10e-4 -0.0937,0 -0.14057,0 -0.003,-2e-5 -0.006,2e-5 -0.01,0 v 14.55532 h 78.4122 v -14.6402 h -62.20224 c -0.0147,0.002 -0.0131,0.003 -0.0438,0.007 -0.22464,0.0176 -0.45013,0.0251 -0.67535,0.0261 -0.0818,0.008 -0.10244,0.01 -0.19499,0.0127 -0.0273,7.6e-4 -0.0547,0 -0.0819,0 -0.13033,-4e-5 -0.26105,5e-5 -0.39137,0 -0.19824,5e-5 -0.3966,0.002 -0.59483,0 -0.0809,-0.001 -0.11951,-0.002 -0.20416,-0.003 -0.0159,-1.2e-4 -0.0321,0.002 -0.048,7.6e-4 -0.007,-2.9e-4 -0.0145,-0.004 -0.0219,-0.004 -0.019,0.002 -0.0377,0.007 -0.0565,0.0112 l -0.0869,0.007 c -0.0524,-0.002 -0.0235,-3.2e-4 -0.0848,-0.002 -0.002,-8e-5 -0.003,-7.6e-4 -0.006,-7.6e-4 -0.0269,0.006 -0.055,0.009 -0.0819,0.0156 -0.0703,2e-5 -0.14088,5e-5 -0.21122,0 -0.0587,0 -0.11729,3e-4 -0.17591,0 -0.0995,-0.001 -0.19864,-1.3e-4 -0.29812,0.002 -0.0643,-2.9e-4 -0.063,2.8e-4 -0.13846,-0.005 -0.0467,-0.003 0.0155,-0.003 -0.0445,-0.006 -0.17662,-0.009 0.12596,0.0143 -0.13987,-0.008 -0.003,-7.6e-4 -0.0294,-0.007 -0.0297,-0.007 -0.0121,-7.6e-4 -0.0245,0 -0.0367,0 h -0.14129 -0.28187 -0.21758 -0.1745 -0.13281 c -0.0431,0 -0.0862,0 -0.12927,0 -0.0701,1e-5 -0.14043,1e-5 -0.21052,0 -0.0946,0 -0.18873,9e-5 -0.28328,0 -0.0971,-2.2e-4 -0.19402,-3.8e-4 -0.29106,7.7e-4 -0.0323,0 -0.0651,-7.7e-4 -0.0975,-0.002 -0.009,-3.8e-4 -0.0259,0.007 -0.0304,-0.004 -0.0588,0.0122 -0.0485,0.0117 -0.12363,0.0186 -0.0411,0.004 -0.0831,-0.003 -0.12434,0 h -0.19003 -0.18155 -0.16814 -0.1646 -0.12363 -0.12786 -0.12363 -0.12716 c -0.0402,0 -0.0806,0 -0.1208,0 h -0.14482 c -0.0433,0 -0.0867,10e-6 -0.12999,0 -0.0654,-1e-5 -0.131,-7e-5 -0.19639,0 -0.0506,0 -0.10056,-0.001 -0.15118,-7.6e-4 -0.056,10e-4 -0.1122,0.002 -0.16813,-0.002 0.009,-0.003 0.0371,-0.0132 0.0276,-0.0112 -0.0152,0.003 -0.0299,0.0104 -0.0452,0.0134 -0.0462,0.009 -0.0848,0.0143 -0.12999,0.0127 -0.0466,0 -0.0939,0 -0.14058,0 -0.038,0 -0.0756,-10e-6 -0.11374,0 -0.0343,2e-5 -0.0689,7e-5 -0.10314,0 -0.0361,0 -0.072,7.6e-4 -0.10808,0 -0.0382,-10e-4 -0.0755,-2.6e-4 -0.11374,0.003 -0.0166,-3.8e-4 -0.1176,-0.006 -0.11868,-0.0127 -3.7e-4,-0.003 0.0114,-0.002 0.009,-0.002 -0.018,-0.003 -0.0372,0.004 -0.0551,-7.6e-4 -0.0377,-0.001 -0.0753,0.003 -0.11303,0.004 -0.0665,-0.002 -0.0766,-0.007 -0.11515,-0.0156 -0.0127,-3.9e-4 -0.0279,-0.002 -0.0211,-7.7e-4 -0.009,-3.8e-4 -0.0179,0.002 -0.0268,0.002 -0.0547,0.003 -0.1062,-3.8e-4 -0.15894,-0.0142 -0.008,10e-4 -0.0158,0.005 -0.0241,0.003 -0.0415,-7.6e-4 -0.0366,1.3e-4 -0.0819,-0.005 -0.0108,-10e-4 -0.021,-0.005 -0.0318,-0.006 -0.0876,-0.007 -0.0492,-0.002 -0.10597,-0.0127 0.006,-1.8e-4 0.0208,-0.002 0.0156,-0.002 -0.008,-3.8e-4 -0.016,2.1e-4 -0.0241,7.6e-4 -3.6e-4,-9e-5 -8e-4,8e-5 -0.002,0 -0.004,2.2e-4 -0.007,7.7e-4 -0.0106,7.7e-4 -0.0623,0.002 -0.12442,0.002 -0.1865,-0.004 -0.007,-0.001 -0.0142,-0.001 -0.0212,-0.003 -0.004,-7.6e-4 -0.009,-0.003 -0.0127,-0.003 -0.0173,-3.9e-4 -0.0351,0.002 -0.0523,7.6e-4 -0.005,-3.5e-4 -0.009,-0.002 -0.0148,-0.002 h -0.0911 c -0.0733,0.07 -0.19407,0.11356 -0.37088,0.0871 -0.0659,-0.01 -0.13227,-0.006 -0.1985,-0.0134 -0.0621,-0.007 -0.0276,-0.009 -0.0593,-0.006 -0.0453,0.004 -0.0893,-0.008 -0.13351,-0.0156 -0.002,-3e-4 0.003,7.7e-4 0.005,0.002 0.008,7.6e-4 0.016,0.002 0.024,0.003 0.007,0.001 -0.0145,-0.001 -0.0219,-0.002 -7.1e-4,-1.1e-4 -8e-4,-3.9e-4 -0.003,-7.7e-4 -0.0166,-0.002 -0.0329,-0.004 -0.0494,-0.006 -0.0108,-0.002 -0.0216,-0.005 -0.0325,-0.007 -0.002,-0.007 0.004,0.004 0.003,0.004 -0.0383,0.002 -0.0768,0.002 -0.11515,0.003 -0.0734,-3.4e-4 -0.14696,-7.6e-4 -0.22041,-7.6e-4 -0.0694,1.9e-4 -0.13832,1e-5 -0.20769,0 -0.0571,0 -0.0505,0.001 -0.12433,-0.007 -0.0172,-0.002 -0.0343,-0.007 -0.0516,-0.009 -0.0132,-10e-4 -0.0263,0.003 -0.0396,0.002 -0.0372,-0.004 -0.0745,-0.009 -0.11161,-0.0134 -0.0467,-0.009 -0.0671,-0.0142 -0.0876,-0.0186 h -3.35984 c -0.0111,0.002 -0.0221,0.004 -0.0396,0.004 -0.008,0.003 -0.0386,-0.003 -0.06,-0.004 z m 5.9772,0.0246 c -0.0177,-7.6e-4 -0.0348,0.003 -0.0523,0.007 0.003,-1e-5 0.005,0.002 0.012,0.002 0.0179,-0.004 0.0541,-0.008 0.0403,-0.009 z m 0.10456,0.0156 c -0.005,-0.001 0.0112,0.004 0.0169,0.004 0.007,7.6e-4 0.0147,3.6e-4 0.0219,7.6e-4 -0.0137,-0.003 -0.006,7.6e-4 -0.0388,-0.005 z" />
  </g>
</svg>
